<?xml version="1.0" encoding="utf-8"?>
<!-- Generator: Adobe Illustrator 27.6.0, SVG Export Plug-In . SVG Version: 6.00 Build 0)  -->
<svg version="1.1" id="Layer_1" xmlns="http://www.w3.org/2000/svg" xmlns:xlink="http://www.w3.org/1999/xlink" x="0px" y="0px"
	 viewBox="0 0 2000 2000" style="enable-background:new 0 0 2000 2000;" xml:space="preserve">
<style type="text/css">
	.st0{fill:#F68C25;}
	.st1{fill:#CA252A;}
	.st2{fill:none;}
	.st3{fill:#F58B24;}
	.st4{fill:#CB2734;}
	.st5{fill:#F68E26;}
</style>
<g>
	<polygon class="st0" points="400.58,932.08 575.96,932.08 545.84,992.34 488.27,992.34 488.27,1162.34 442.54,1162.34 
		442.54,990.19 370.46,990.19 	"/>
	<polygon class="st1" points="1471.78,932.08 1647.16,932.08 1617.03,992.34 1559.47,992.34 1559.47,1162.34 1513.74,1162.34 
		1513.74,990.19 1441.65,990.19 	"/>
	<path class="st2" d="M248.79,1167.18h-28.35c-55.6,0-100.68-45.08-100.68-100.68v-36.42c0-55.6,45.08-100.68,100.68-100.68h28.35
		c55.6,0,100.68,45.08,100.68,100.68v36.42C349.47,1122.1,304.4,1167.18,248.79,1167.18z"/>
	<path class="st2" d="M256.43,1111.74h-43.62c-23,0-41.65-18.65-41.65-41.65v-43.62c0-23,18.65-41.65,41.65-41.65h43.62
		c23,0,41.65,18.65,41.65,41.65v43.62C298.07,1093.1,279.43,1111.74,256.43,1111.74z"/>
	<path class="st3" d="M257.26,929.39h-45.35c-50.92,0-92.16,41.34-92.16,92.16v53.46c0,50.92,41.24,92.16,92.16,92.16h45.35
		c50.92,0,92.26-41.24,92.26-92.16v-53.46C349.52,970.73,308.18,929.39,257.26,929.39z M298.11,1070.13
		c0,22.97-18.67,41.63-41.73,41.63h-43.59c-22.97,0-41.63-18.67-41.63-41.63v-43.59c0-23.06,18.67-41.63,41.63-41.63h43.59
		c23.06,0,41.73,18.57,41.73,41.63V1070.13z"/>
	<path class="st3" d="M713.47,929.39h-45.35c-50.92,0-92.16,41.34-92.16,92.16v53.46c0,50.92,41.24,92.16,92.16,92.16h45.35
		c50.92,0,92.26-41.24,92.26-92.16v-53.46C805.73,970.73,764.39,929.39,713.47,929.39z M754.32,1070.13
		c0,22.97-18.67,41.63-41.73,41.63H669c-22.97,0-41.63-18.67-41.63-41.63v-43.59c0-23.06,18.67-41.63,41.63-41.63h43.59
		c23.06,0,41.73,18.57,41.73,41.63V1070.13z"/>
	<path class="st1" d="M1326.76,929.39h-45.35c-50.92,0-92.16,41.34-92.16,92.16v53.46c0,50.92,41.24,92.16,92.16,92.16h45.35
		c50.92,0,92.26-41.24,92.26-92.16v-53.46C1419.02,970.73,1377.68,929.39,1326.76,929.39z M1367.62,1070.13
		c0,22.97-18.67,41.63-41.73,41.63h-43.59c-22.97,0-41.63-18.67-41.63-41.63v-43.59c0-23.06,18.67-41.63,41.63-41.63h43.59
		c23.06,0,41.73,18.57,41.73,41.63V1070.13z"/>
	<path class="st1" d="M1787.99,929.39h-45.35c-50.92,0-92.16,41.34-92.16,92.16v53.46c0,50.92,41.24,92.16,92.16,92.16h45.35
		c50.92,0,92.26-41.24,92.26-92.16v-53.46C1880.25,970.73,1838.91,929.39,1787.99,929.39z M1828.84,1070.13
		c0,22.97-18.67,41.63-41.73,41.63h-43.59c-22.97,0-41.63-18.67-41.63-41.63v-43.59c0-23.06,18.67-41.63,41.63-41.63h43.59
		c23.06,0,41.73,18.57,41.73,41.63V1070.13z"/>
	<ellipse class="st1" cx="1082.85" cy="798.16" rx="31.09" ry="40.6"/>
	<path class="st4" d="M923.46,739.21h-2c-16.83,0-30.47,13.64-30.47,30.47v46.92c0,16.83,13.64,30.47,30.47,30.47h2
		c16.83,0,30.47-13.64,30.47-30.47v-46.92C953.92,752.85,940.28,739.21,923.46,739.21z"/>
	<rect x="952.81" y="781.72" class="st4" width="22.59" height="9.68"/>
	<path class="st4" d="M879.66,1076.97l-8.56-1.13c-10.6-1.4-18.05-11.13-16.65-21.72l24.64-186.26c1.4-10.6,11.13-18.05,21.72-16.65
		l8.56,1.13c10.6,1.4,18.05,11.13,16.65,21.72l-24.64,186.26C899.98,1070.92,890.26,1078.38,879.66,1076.97z"/>
	<path class="st4" d="M878.12,1260.79L878.12,1260.79c10.7,0,19.37-8.67,19.37-19.37v-177.53c0-10.7-8.67-19.37-19.37-19.37h0
		c-10.7,0-19.37,8.67-19.37,19.37v177.53C858.75,1252.12,867.43,1260.79,878.12,1260.79z"/>
	<path class="st4" d="M1117.02,1076.97l8.56-1.13c10.6-1.4,18.05-11.13,16.65-21.72l-24.64-186.26
		c-1.4-10.6-11.13-18.05-21.72-16.65l-8.56,1.13c-10.6,1.4-18.05,11.13-16.65,21.72l24.64,186.26
		C1096.69,1070.92,1106.42,1078.38,1117.02,1076.97z"/>
	<path class="st4" d="M1118.55,1260.79L1118.55,1260.79c-10.7,0-19.37-8.67-19.37-19.37v-177.53c0-10.7,8.67-19.37,19.37-19.37l0,0
		c10.7,0,19.37,8.67,19.37,19.37v177.53C1137.92,1252.12,1129.25,1260.79,1118.55,1260.79z"/>
	<path class="st4" d="M919.21,903.03l24.11,56.76c0,0,62.74,25.89,52.69,43.64s-60.73-15.53-60.73-15.53s-27.28-11.17-24.95-58.51
		c2.33-47.34-4.82-40.34-4.82-40.34l10.78-0.36L919.21,903.03z"/>
	
	<rect x="963.04" y="878.96" class="st5" width="73.43" height="76.26"/>
	<rect x="993.21" y="997.31" class="st4" width="7.53" height="3.36"/>
</g>
</svg>
